inDegrees=yes
name=ik_MT_2026-08-11_12h33_01210270-000-000_orientations
DataType=double
version=3
OpenSimVersion=4.5
endheader
time	pelvis_tilt	pelvis_list	pelvis_rotation	pelvis_tx	pelvis_ty	pelvis_tz	hip_flexion_r	hip_adduction_r	hip_rotation_r	knee_angle_r	knee_angle_r_beta	ankle_angle_r	subtalar_angle_r	mtp_angle_r	hip_flexion_l	hip_adduction_l	hip_rotation_l	knee_angle_l	knee_angle_l_beta	ankle_angle_l	subtalar_angle_l	mtp_angle_l	lumbar_extension	lumbar_bending	lumbar_rotation	arm_flex_r	arm_add_r	arm_rot_r	elbow_flex_r	pro_sup_r	wrist_flex_r	wrist_dev_r	arm_flex_l	arm_add_l	arm_rot_l	elbow_flex_l	pro_sup_l	wrist_flex_l	wrist_dev_l
50.975	-1.104178251902602	-3.612707267753983	254.9363266666872	0	0.9399999999999999	0	20.09533436679669	-2.658898939209441	-12.66991147032861	-2.664708146115805	-0.04650793075443494	-7.175985022273414	0	0	-15.29463805295822	-0.3128276355478149	5.194063062265142	4.867804656273592	0.08495921859588504	6.909527488473891	0	0	-5.673937572516453	-0.3148841061344635	-1.723815200795968	-57.98171534051883	34.79678745491648	35.8015789368631	0.02906220725782139	44.99999487382937	0	0	-5.11754553604462	-0.05814576632452675	1.473594257720594	4.144602313882287	44.99999487382937	0	0
51	-2.081511364508025	-4.422827024508584	254.9841264444391	0	0.9399999999999999	0	18.62260271244989	-1.795958768904534	-12.76086983854197	-2.545453161650866	-0.04442653862610708	-13.07610862847918	0	0	-16.46563997331356	-1.481031342582691	4.89940404792344	7.829326433230201	0.136647524473291	7.130007308024446	0	0	-6.07697306653771	0.7734305021459581	-1.539783717289255	-58.46994203831049	35.71249782896851	34.80184336813472	0.02906581525091951	44.99999490501285	0	0	-5.625479675291701	0.1580916953020565	1.76411445023489	3.862326675514785	44.99999490501285	0	0
51.025	-2.550062450905588	-2.945861045378852	254.8178480805746	0	0.9399999999999999	0	17.82838094865882	-0.8238193635866887	-10.46884802489419	-3.706238390512827	-0.06468606277826421	-17.04260292639311	0	0	-14.86166776931329	-3.097543455712803	3.760540820196713	11.52104654861045	0.2010801955487813	6.143177609921444	0	0	-3.893611396287093	1.898521407310381	-1.041060140404515	-58.8016678037288	36.83704299176864	33.56430902924244	0.02885886862361547	44.99999493239157	0	0	-6.532559918047376	0.1930929976090388	1.809822558077908	3.533521503533894	44.99999493239157	0	0
51.05	-2.865386122743078	-1.436092609367651	254.7113721820194	0	0.9399999999999999	0	18.05780673494178	0.6603419450176063	-10.23964876743224	-2.618509161930786	-0.04570160636932957	-18.53916273447549	0	0	-12.34195474537903	-5.4240387267005	2.005925098542515	16.66088606291839	0.290787318097561	3.807673271643936	0	0	-1.564766099290404	2.947780550456069	-0.5976990324022785	-58.7504016535603	38.06287268595	32.13317676580954	0.02847402430333286	44.99999496337997	0	0	-7.580732800785059	0.2108360081444419	1.977772773623864	3.252452656011354	44.99999496337997	0	0
51.075	-3.82841156339407	-1.23496514089249	254.2358674591654	0	0.9399999999999999	0	18.2562439851057	2.132096871497759	-7.528290046443913	0.1035212588615909	0.001806786812944118	-18.22157923062606	0	0	-10.43758199190599	-9.323189051260869	-0.2024376515409726	23.30156547889306	0.4066890384757331	-0.3491940961233524	0	0	-1.99936737833603	4.259999013066322	0.06161529557703323	-57.16155621805805	39.05108863968193	30.77114948434057	0.02847010584796021	44.9999949943322	0	0	-7.249456500426342	0.1486406726736274	1.898561494948416	2.857447674706145	44.9999949943322	0	0
51.1	-4.794368236242659	-0.03579132024036615	254.2606411387226	0	0.9399999999999999	0	18.61853761935519	3.70960509982755	-5.997954015417904	0.9049112747439662	0.01579368118270122	-17.53248814567036	0	0	-6.408272202209404	-14.64847359389233	-0.4340416169676475	31.14200976493842	0.5435306060864008	-5.410507190711737	0	0	-1.949541950764656	5.917727882314058	0.4748251171353373	-54.77690818936932	39.80644741162735	29.25881091257194	0.02878791601868797	44.99999502957964	0	0	-6.494930304054507	0.0272458811570156	1.891889486745529	2.448137769556689	44.99999502957964	0	0
51.125	-5.430426401768363	1.197021681625662	254.9502108415225	0	0.9399999999999999	0	17.9344170218937	4.587173107142844	-7.334269473321061	0.5881330062918079	0.01026485739944457	-17.16227348014194	0	0	-1.160498517469859	-18.95661760127552	1.990647530033164	39.36651694698709	0.6870753357670707	-9.406435237319767	0	0	-1.827189977956635	7.229066893144963	0.3430964086470656	-52.34176725190452	40.26172905133992	28.03834619628551	0.029399090143666	44.99999506955859	0	0	-5.611596910849889	-0.03613932896038546	1.917211694275203	1.965892311093438	44.99999506955859	0	0
51.15	-6.204805786872369	0.6643931009215598	255.8125517335747	0	0.9399999999999999	0	14.69509229622658	5.257162113392009	-10.15079416012574	0.2256483268217959	0.003938306254656571	-15.93184926638055	0	0	2.835658413477063	-21.76283155034106	5.808296722106232	47.93224677959144	0.8365755241823194	-10.8217943588695	0	0	-3.312153634459233	7.9913482590554	0.2496376223821916	-50.19625811709957	40.5071100695301	27.34357325646674	0.03015390500190783	44.99999510713472	0	0	-4.705548284249641	-0.1963406415710681	2.46581459665376	1.641525455702495	44.99999510713472	0	0
51.175	-6.924893804364912	-0.1273456892600191	256.4427811985007	0	0.9399999999999999	0	11.4666402194814	6.211088824611632	-11.58471736491428	-0.2532234919812592	-0.004419583678470431	-14.60387718933179	0	0	4.958249017279245	-23.01438679962984	8.589775551546882	53.67726304453826	0.9368449735862684	-12.8513896849611	0	0	-3.568411274032472	8.540414885756739	0.2364773341543116	-49.87378869278926	40.18676770890558	27.31188386865842	0.03069815307997559	44.99999513481328	0	0	-5.041650764772382	-0.536778287277081	3.367431926464421	1.604894341985779	44.99999513481328	0	0
51.2	-7.462621575959236	-0.9272412912263838	256.6834403042356	0	0.9399999999999999	0	9.226875325167352	6.974066584534182	-10.50893482426124	-0.5322571527370452	-0.009289639782551788	-13.48740370583145	0	0	7.040304026030796	-23.46548323436243	9.699612191494269	58.05747454075344	1.01329408612893	-14.64718774841428	0	0	-3.232435943393536	9.107889573828757	0.2862753613736441	-50.47659967467246	38.87720828787239	27.85161840532431	0.03077360643192534	44.9999951589983	0	0	-5.687698971321311	-0.7394180268906483	4.060770420385633	1.517432247523987	44.9999951589983	0	0
51.225	-8.031631170971353	-2.124742874829762	256.6656324973548	0	0.9399999999999999	0	6.771649897446103	7.567779389466072	-8.957980814225017	-0.9013726520450693	-0.01573192056561966	-12.56351264056012	0	0	8.545581870572683	-23.1990740477786	8.90281422544545	60.48279484526085	1.055623910858056	-12.6078849915175	0	0	-3.776995390056206	9.843283725194855	0.6284365309417963	-50.54873332372788	36.97972156942007	28.6104009285542	0.03025973177616642	44.99999518066441	0	0	-5.930222919056939	-0.6339993301820478	4.653458293054102	1.345093087331072	44.99999518066441	0	0
51.25	-8.066876262541513	-1.705026138677651	256.3443607702742	0	0.9399999999999999	0	5.450348528469997	8.130212372622058	-7.95344665027433	-1.530602059772659	-0.02671404548083994	-11.62678650419458	0	0	11.50763489575451	-23.73628271138571	7.344402570356018	61.65051056964388	1.076004394975851	-9.417556167875613	0	0	-3.236525132157974	10.44201725193814	1.230841864856212	-49.92699893376957	34.84834278994648	29.63256096094336	0.02970898773627507	44.99999519948486	0	0	-5.734889649854409	-0.4147467627094271	4.682879608141288	1.195516206764007	44.99999519948486	0	0
51.275	-7.683430219132754	-1.226876948604422	256.082771050561	0	0.9399999999999999	0	4.532233341117236	8.264687511686631	-7.600412912359269	-1.702323407573119	-0.0297111483959203	-10.58740635105032	0	0	15.23810666903738	-23.35200542462409	7.319032702918171	61.86517631960584	1.07975101910395	-7.455921098586979	0	0	-3.009499539224085	10.32245240008922	1.395306613475666	-48.63614099174614	32.91109252333327	31.32300911911098	0.0297945303433153	44.99999522910998	0	0	-5.222447155342341	-0.3799657256959745	3.874042038363335	1.129771152443487	44.99999522910998	0	0
51.3	-7.247823206123484	-1.409762017113327	255.6589969562327	0	0.9399999999999999	0	3.248005784659092	8.166677771972244	-6.955516337042091	-1.521981087957618	-0.02656358113794585	-9.389788296728781	0	0	18.22915937659456	-21.97249391346732	7.151088842718519	61.07310636909845	1.065926790561487	-5.90154148126248	0	0	-3.250477301241312	9.752866402695924	1.440805761432614	-47.13466363499987	31.45728831842483	33.11503606896174	0.03067321878674312	44.99999524469887	0	0	-5.058228319029504	-0.4159501879456967	2.682331119652531	1.074489532632643	44.99999524469887	0	0
51.325	-6.759452654109686	-1.506978751406975	255.170745870896	0	0.9399999999999999	0	2.019383489427211	8.001210523117035	-6.025462027709101	-1.484414532160851	-0.0259079210506581	-8.241130178905987	0	0	21.13573758163463	-20.75639020345793	6.506754540228088	59.65569046441885	1.041188216154694	-3.949230474193511	0	0	-3.432102366993591	9.138386669638095	1.613875300262163	-45.18570604069657	30.39487729546374	34.49004598406937	0.0315401100788385	44.9999952570711	0	0	-4.972901442810256	-0.4330026578732034	1.659290701901551	1.109953818282505	44.9999952570711	0	0
